<?xml version="1.0" encoding="utf-8"?>
<!-- Generator: Adobe Illustrator 22.1.0, SVG Export Plug-In . SVG Version: 6.00 Build 0)  -->
<svg version="1.1" id="Calque_1" xmlns="http://www.w3.org/2000/svg" xmlns:xlink="http://www.w3.org/1999/xlink" x="0px" y="0px"
	 viewBox="0 0 341.8 119.3" style="enable-background:new 0 0 341.8 119.3;" xml:space="preserve">
<style type="text/css">
	.st0{fill:#040614;}
</style>
<path class="st0" d="M0,33.3l25.4,0l17-17l51.1,0c0,0,0.7-2.6,3.8-2.6c0,0,3.4,0,3.4,3.7c0,0,0,3.5-3.6,3.7c0,0-2.5,0.2-3.6-2.5
	l-50.4-0.1L26,35.8L0,35.8v6.4h42.8l8.3-8.3h16.8c0,0,0.6-2.8,3.7-2.8c0,0,3.1,0,3.5,3.5c0,0,0.1,3.5-3.5,3.8c0,0-2.5,0.4-3.7-2.4
	h-16l-8.4,8.4H0v9.4h144.8c0,0,1-4.4,5.2-4.4c0,0,5.3,0,5.8,5.5c0,0,0.1,5.6-5.6,5.8c0,0-4.5,0-5.5-4.9H0v10.8h41.8l8.1-8.1
	l53.1-0.1l8.1,8.1l58.8,0.1c0,0,0.9-2.2,3.5-2.2c0,0,3.7,0.2,3.7,3.9c0,0,0,3.3-3.9,3.5c0,0-2.8,0-3.4-2.9h-59.5l-8-8l-51.7,0
	l-8.1,8.1L0,68.9v3.9h75.6c0,0,0.9-4.7,5.7-4.7c0,0,5.5,0.4,5.5,5.9c0,0-0.3,5.4-5.8,5.4c0,0-4.4,0.2-5.4-4.5H0v5.3l206.5,0
	l17.4-17.4l27.4,0c0,0,0.1-2.4,3.4-2.7c0,0,3.5,0,3.7,3.7c0,0,0,3.4-3.6,3.7c0,0-3,0-3.6-2.6L224.8,65l-17.6,17.4L0.1,82.3L0,87.3
	h255.3L266,76.7h46.3c0,0,0.6-4.2,6-4.3c0,0,5.3,0.4,5.3,5.9c0,0-0.2,4.9-5.6,5.4c-0.9,0.1-5-0.7-5.6-4.9h-45.4l-10.6,10.6H0v7.3
	l113.2,0.1l8.5,8.5l87.2-0.1l12.6-12.6h33.7l4.4,4.4h31.9c0,0,0.9-2.8,3.7-2.7c0,0,3.5,0.1,3.6,3.9c0,0-0.1,3.2-3.7,3.5
	c0,0-2.5,0.2-3.6-2.6l-32.7,0l-4.4-4.5l-32,0l-12.5,12.5h-89.3l-8.6-8.4H0v20.4h341.8V0H0V33.3z"/>
</svg>
